<svg version="1.1" id="Layer_1" xmlns="http://www.w3.org/2000/svg" xmlns:xlink="http://www.w3.org/1999/xlink" x="0px" y="0px"
	 width="100%" viewBox="0 0 400 400" enable-background="new 0 0 400 400" xml:space="preserve">
<path fill="#000000" opacity="1.000000" stroke="none" 
	d="
M149.349701,289.804749 
	C113.934235,273.555420 93.497925,239.898026 95.858116,201.237442 
	C96.839676,185.159363 102.226776,170.383362 111.293694,156.960922 
	C113.927139,153.062408 118.037224,151.576233 121.825485,149.680374 
	C169.796295,125.673409 217.832413,101.797005 265.829529,77.842484 
	C268.099548,76.709557 269.990479,76.349518 272.300171,77.902298 
	C291.259735,90.648575 306.650818,106.800232 318.724518,126.155479 
	C319.075256,126.717758 319.377106,127.324074 319.603912,127.945564 
	C319.769135,128.398422 319.773071,128.910141 319.906647,129.765533 
	C314.020538,132.972031 307.228729,133.310272 300.932678,135.117523 
	C287.669830,138.924591 274.161072,141.870148 260.773224,145.248413 
	C252.817429,147.255966 252.531708,148.141571 257.329834,154.522156 
	C284.086517,190.103378 279.957672,242.466614 247.113876,272.374603 
	C218.602966,298.337006 185.754807,303.964294 149.349701,289.804749 
M194.374069,263.242493 
	C187.904419,264.404572 181.427231,264.233917 175.016846,262.974579 
	C138.406662,255.782318 118.905746,217.662903 134.395020,183.732834 
	C135.242783,181.875748 136.873291,180.061966 135.618607,177.764725 
	C128.605911,176.745697 125.634338,178.170258 123.497307,184.273697 
	C114.400055,210.255753 118.889778,233.952255 137.990265,253.573486 
	C156.143494,272.221619 178.822922,278.182037 204.063919,270.816071 
	C236.070816,261.475586 255.568237,230.508606 250.510208,197.341736 
	C248.035873,181.116867 240.170639,167.686432 227.513580,157.009567 
	C223.455856,153.586670 219.800827,155.129944 215.951553,156.571457 
	C214.113312,157.259827 213.991531,158.814880 215.412491,160.125977 
	C216.628174,161.247635 218.125534,162.057022 219.413620,163.108292 
	C236.913254,177.390900 244.657013,195.887146 240.361603,218.001984 
	C235.568268,242.680267 219.794281,257.601959 194.374069,263.242493 
M211.140167,188.495850 
	C206.939529,181.166107 199.998535,178.691589 193.204025,182.101456 
	C186.990250,185.219864 184.239822,192.724243 186.973679,199.100601 
	C189.606552,205.241409 197.259003,208.474472 203.673645,206.156113 
	C210.540665,203.674271 213.730408,196.717789 211.140167,188.495850 
z"/>
<path fill="#000000" opacity="1.000000" stroke="none" 
	d="
M108.211800,286.772400 
	C148.931366,324.785583 205.822769,328.985229 250.485779,296.663544 
	C275.787903,278.352905 290.705597,253.191879 294.828583,221.983643 
	C297.504822,201.726212 294.926819,182.186142 286.588440,163.465622 
	C286.260590,162.729568 286.085632,161.925415 285.666901,160.611816 
	C292.233063,157.390640 299.278809,156.378937 306.144562,154.921265 
	C308.604004,154.399094 309.295868,156.890381 310.069031,158.730133 
	C313.889954,167.822235 316.528229,177.232635 317.866425,187.018051 
	C321.080322,210.519287 319.612732,233.608505 310.449493,255.654663 
	C289.576324,305.874146 251.819763,334.550995 197.933502,340.942291 
	C174.432068,343.729645 151.418228,339.732056 129.792786,329.582581 
	C126.281372,327.934509 123.382324,327.899567 120.010300,329.753082 
	C114.908836,332.557251 109.550537,334.890289 104.393776,337.599396 
	C101.740433,338.993256 100.297699,338.587738 99.013718,335.733917 
	C88.473679,312.306702 81.805954,287.885437 79.630135,262.253082 
	C79.193657,257.111206 78.464806,251.992706 78.709152,246.818375 
	C78.766548,245.602814 78.156883,244.152115 80.173843,242.830414 
	C86.161415,259.583984 95.135666,274.313080 108.211800,286.772400 
z"/>
<path fill="#000000" opacity="1.000000" stroke="none" 
	d="
M194.041199,93.085663 
	C168.876862,105.603004 144.047195,117.957047 118.931625,130.453339 
	C116.488945,124.696350 118.353668,119.737549 119.034111,115.016869 
	C121.886879,95.225365 130.395737,77.994446 143.415161,62.803295 
	C148.417053,56.967064 154.307938,54.272820 161.822983,53.289230 
	C177.958908,51.177326 193.993668,50.901752 210.050522,53.638599 
	C210.844772,53.773975 211.613205,54.060917 213.616531,54.616306 
	C205.105362,61.568253 195.779556,65.844994 186.626724,72.828217 
	C198.478592,75.196838 209.547272,74.633621 219.949951,80.031044 
	C211.425262,84.328148 202.900574,88.625252 194.041199,93.085663 
z"/>
</svg>